<svg width="100" height="100" viewBox="0 0 100 100" xmlns="http://www.w3.org/2000/svg">
  <defs>
    <linearGradient id="grad1" x1="0%" y1="0%" x2="100%" y2="100%">
      <stop offset="0%" style="stop-color:#3b82f6;stop-opacity:1" />
      <stop offset="100%" style="stop-color:#8b5cf6;stop-opacity:1" />
    </linearGradient>
  </defs>
  
  <!-- Background circle -->
  <circle cx="50" cy="50" r="45" fill="url(#grad1)" stroke="#1e293b" stroke-width="2"/>
  
  <!-- Trophy base -->
  <rect x="35" y="65" width="30" height="8" fill="#fbbf24" rx="2"/>
  <rect x="40" y="73" width="20" height="12" fill="#f59e0b" rx="2"/>
  
  <!-- Trophy cup -->
  <path d="M25 25 L75 25 L75 35 Q75 45 65 50 L35 50 Q25 45 25 35 Z" fill="#fbbf24"/>
  
  <!-- Trophy handles -->
  <path d="M20 30 Q15 30 15 35 Q15 40 20 40" fill="none" stroke="#f59e0b" stroke-width="3"/>
  <path d="M80 30 Q85 30 85 35 Q85 40 80 40" fill="none" stroke="#f59e0b" stroke-width="3"/>
  
  <!-- Code symbols -->
  <text x="50" y="40" text-anchor="middle" font-family="monospace" font-size="12" fill="#1e293b" font-weight="bold">&lt;/&gt;</text>
  
  <!-- Trophy neck -->
  <rect x="45" y="50" width="10" height="15" fill="#f59e0b"/>
</svg>